# xmcd
#
# Track frame offsets:
# 150
# 17100
# 39637
# 56245
#
# Disc length: 975 seconds
#
#
# Revision: 1
# Processed by: cddbd v1.5.2PL0 Copyright (c) Steve Scherf et al.
# Submitted via: FreeRIP 2.95 
#
DISCID=3103cd04
DTITLE=Wir Sind Helden - Endlich Ein Grund Zur Panik
DYEAR=2007
DGENRE=Pop
TTITLE0=Endlich Ein Grund Zur Panik
TTITLE1=Endlich Ein Grund Zur Panik Remix (Tim Tim)
TTITLE2=Popstar (Demo 2001)
TTITLE3=Panique
EXTD=
EXTT0=
EXTT1=
EXTT2=
EXTT3=
PLAYORDER=
